<svg width="600" height="552" viewBox="0 0 600 552" fill="none" xmlns="http://www.w3.org/2000/svg">
<path d="M198.643 12.6172L304.585 259.44L417.63 0.505859L418.059 0.216797H436.904L437 0C437.479 0.0704897 437.956 0.144886 438.432 0.216797H440.065L441 0.505859L440.956 0.605469C472.429 5.57375 498.19 13.7064 518.257 25.0068C554.587 44.6431 572.752 78.0776 572.752 125.311C572.752 198.018 529.934 241.536 444.298 255.865V257.457C548.099 270.725 600 316.896 600 395.972C600 453.819 578.721 494.418 536.162 517.77C497.752 538.366 438.422 549.665 368.462 551.673V552H121.522V537.018H169.041V290.982L36.6123 12.6172H0V0H193L198.643 12.6172ZM320.943 276V536.875H362.555C391.1 536.875 411.082 526.791 422.5 506.624C433.918 486.457 439.627 456.738 439.627 417.466V375.274C439.627 340.248 432.621 313.977 418.607 296.464C404.594 278.95 372.684 270.194 336.872 270.194H323.474L320.943 276ZM330.065 255.068H339.208C366.196 255.068 391.879 246.843 402.259 230.391C413.158 213.408 418.607 187.669 418.607 153.173V115.758C418.607 94.0981 417.183 76.0711 414.342 61.6758L330.065 255.068Z" fill="black"/>
</svg>
