<svg width="21" height="19" viewBox="0 0 21 19" fill="none" xmlns="http://www.w3.org/2000/svg">
  <path d="M7.38477 9.47656L-6.12934e-07 4.97754L-6.9946e-07 2.99805L9.1543 8.55762L9.15918 8.55762L3.94531 -1.72451e-07L6.08496 -2.65982e-07L10.5664 7.38574L15.0654 -6.58531e-07L17.0449 -7.45054e-07L11.8467 8.55957L11.875 8.55957L21 3L21 5.13965L13.6143 9.62207L21 14.1201L21 16.0996L12.0068 10.6396L17.1016 19L14.9619 19L10.4795 11.6152L5.98145 19L4.00195 19L9.14062 10.5381L9.12402 10.5381L-1.26858e-07 16.0977L-2.20392e-07 13.958L7.38477 9.47656Z" fill="#211e19"/>
</svg>
