<svg width="23" height="23" viewBox="0 0 23 23" fill="none" xmlns="http://www.w3.org/2000/svg">
<mask id="path-1-outside-1_3869_27997" maskUnits="userSpaceOnUse" x="-9.61651e-07" y="-9.61651e-07" width="23" height="23" fill="black">
<rect fill="white" x="-9.61651e-07" y="-9.61651e-07" width="23" height="23"/>
<path d="M8.38477 11.4766L0.999999 6.97754L0.999999 4.99805L10.1543 10.5576L10.5049 10.5576L10.5049 10.125L4.94531 1L7.08496 1L11.5664 8.38574L16.0654 0.999999L18.0449 0.999999L12.4854 10.1543L12.4854 10.5596L12.875 10.5596L22 5L22 7.13965L14.6143 11.6221L22 16.1201L22 18.0996L12.8447 12.54L12.542 12.54L12.542 12.875L18.1016 22L15.9619 22L11.4795 14.6152L6.98145 22L5.00195 22L10.5615 12.8457L10.5615 12.5381L10.124 12.5381L1 18.0977L1 15.958L8.38477 11.4766ZM12 12L12 11L11 11L11 12L12 12Z"/>
</mask>
<path d="M8.38477 11.4766L0.999999 6.97754L0.999999 4.99805L10.1543 10.5576L10.5049 10.5576L10.5049 10.125L4.94531 1L7.08496 1L11.5664 8.38574L16.0654 0.999999L18.0449 0.999999L12.4854 10.1543L12.4854 10.5596L12.875 10.5596L22 5L22 7.13965L14.6143 11.6221L22 16.1201L22 18.0996L12.8447 12.54L12.542 12.54L12.542 12.875L18.1016 22L15.9619 22L11.4795 14.6152L6.98145 22L5.00195 22L10.5615 12.8457L10.5615 12.5381L10.124 12.5381L1 18.0977L1 15.958L8.38477 11.4766ZM12 12L12 11L11 11L11 12L12 12Z" fill="white"/>
<path d="M8.38477 11.4766L8.90356 12.3315L10.3096 11.4782L8.90505 10.6226L8.38477 11.4766ZM0.999999 6.97754L-6.56653e-07 6.97754L-6.32098e-07 7.53928L0.479719 7.83153L0.999999 6.97754ZM0.999999 4.99805L1.51909 4.14333L-8.20867e-07 3.22076L-7.43179e-07 4.99805L0.999999 4.99805ZM10.1543 10.5576L9.63521 11.4123L9.87442 11.5576L10.1543 11.5576L10.1543 10.5576ZM10.5049 10.5576L10.5049 11.5576L11.5049 11.5576L11.5049 10.5576L10.5049 10.5576ZM10.5049 10.125L11.5049 10.125L11.5049 9.84436L11.3589 9.6047L10.5049 10.125ZM4.94531 1L4.94531 -1.72455e-07L3.16506 -9.46377e-08L4.09133 1.5203L4.94531 1ZM7.08496 1L7.93989 0.481254L7.64788 -2.90588e-07L7.08496 -2.65982e-07L7.08496 1ZM11.5664 8.38574L10.7115 8.90449L11.5647 10.3107L12.4204 8.90597L11.5664 8.38574ZM16.0654 0.999999L16.0654 -6.58531e-07L15.5037 -6.33975e-07L15.2114 0.47977L16.0654 0.999999ZM18.0449 0.999999L18.8996 1.51909L19.8222 -8.22745e-07L18.0449 -7.45057e-07L18.0449 0.999999ZM12.4854 10.1543L11.6306 9.63521L11.4854 9.87442L11.4854 10.1543L12.4854 10.1543ZM12.4854 10.5596L11.4854 10.5596L11.4854 11.5596L12.4854 11.5596L12.4854 10.5596ZM12.875 10.5596L12.875 11.5596L13.1556 11.5596L13.3953 11.4136L12.875 10.5596ZM22 5L23 5L23 3.21974L21.4797 4.14602L22 5ZM22 7.13965L22.5188 7.99453L23 7.7025L23 7.13965L22 7.13965ZM14.6143 11.6221L14.0954 10.7672L12.6893 11.6206L14.0941 12.4761L14.6143 11.6221ZM22 16.1201L23 16.1201L23 15.5583L22.5201 15.266L22 16.1201ZM22 18.0996L21.481 18.9544L23 19.8768L23 18.0996L22 18.0996ZM12.8447 12.54L13.3638 11.6853L13.1246 11.54L12.8447 11.54L12.8447 12.54ZM12.542 12.54L12.542 11.54L11.542 11.54L11.542 12.54L12.542 12.54ZM12.542 12.875L11.542 12.875L11.542 13.1556L11.688 13.3953L12.542 12.875ZM18.1016 22L18.1016 23L19.8818 23L18.9555 21.4797L18.1016 22ZM15.9619 22L15.1071 22.5189L15.3991 23L15.9619 23L15.9619 22ZM11.4795 14.6152L12.3343 14.0964L11.481 12.6904L10.6254 14.095L11.4795 14.6152ZM6.98145 22L6.98145 23L7.54324 23L7.83549 22.5202L6.98145 22ZM5.00195 22L4.14723 21.4809L3.22466 23L5.00195 23L5.00195 22ZM10.5615 12.8457L11.4162 13.3648L11.5615 13.1256L11.5615 12.8457L10.5615 12.8457ZM10.5615 12.5381L11.5615 12.5381L11.5615 11.5381L10.5615 11.5381L10.5615 12.5381ZM10.124 12.5381L10.124 11.5381L9.84336 11.5381L9.60368 11.6841L10.124 12.5381ZM1 18.0977L-1.70577e-07 18.0977L-9.27552e-08 19.878L1.52034 18.9516L1 18.0977ZM1 15.958L0.481205 15.1031L-2.88708e-07 15.3951L-2.64104e-07 15.958L1 15.958ZM12 12L12 13L13 13L13 12L12 12ZM12 11L13 11L13 10L12 10L12 11ZM11 11L11 10L10 10L10 11L11 11ZM11 12L10 12L10 13L11 13L11 12ZM8.38477 11.4766L8.90505 10.6226L1.52028 6.12354L0.999999 6.97754L0.479719 7.83153L7.86449 12.3306L8.38477 11.4766ZM0.999999 6.97754L2 6.97754L2 4.99805L0.999999 4.99805L-7.43179e-07 4.99805L-6.56653e-07 6.97754L0.999999 6.97754ZM0.999999 4.99805L0.480912 5.85277L9.63521 11.4123L10.1543 10.5576L10.6734 9.7029L1.51909 4.14333L0.999999 4.99805ZM10.1543 10.5576L10.1543 11.5576L10.5049 11.5576L10.5049 10.5576L10.5049 9.55762L10.1543 9.55762L10.1543 10.5576ZM10.5049 10.5576L11.5049 10.5576L11.5049 10.125L10.5049 10.125L9.50488 10.125L9.50488 10.5576L10.5049 10.5576ZM10.5049 10.125L11.3589 9.6047L5.79929 0.479696L4.94531 1L4.09133 1.5203L9.6509 10.6453L10.5049 10.125ZM4.94531 1L4.94531 2L7.08496 2L7.08496 1L7.08496 -2.65982e-07L4.94531 -1.72455e-07L4.94531 1ZM7.08496 1L6.23003 1.51875L10.7115 8.90449L11.5664 8.38574L12.4213 7.867L7.93989 0.481254L7.08496 1ZM11.5664 8.38574L12.4204 8.90597L16.9195 1.52023L16.0654 0.999999L15.2114 0.47977L10.7124 7.86551L11.5664 8.38574ZM16.0654 0.999999L16.0654 2L18.0449 2L18.0449 0.999999L18.0449 -7.45057e-07L16.0654 -6.58531e-07L16.0654 0.999999ZM18.0449 0.999999L17.1902 0.480912L11.6306 9.63521L12.4854 10.1543L13.3401 10.6734L18.8996 1.51909L18.0449 0.999999ZM12.4854 10.1543L11.4854 10.1543L11.4854 10.5596L12.4854 10.5596L13.4854 10.5596L13.4854 10.1543L12.4854 10.1543ZM12.4854 10.5596L12.4854 11.5596L12.875 11.5596L12.875 10.5596L12.875 9.55957L12.4854 9.55957L12.4854 10.5596ZM12.875 10.5596L13.3953 11.4136L22.5203 5.85398L22 5L21.4797 4.14602L12.3547 9.70559L12.875 10.5596ZM22 5L21 5L21 7.13965L22 7.13965L23 7.13965L23 5L22 5ZM22 7.13965L21.4812 6.28477L14.0954 10.7672L14.6143 11.6221L15.1331 12.4769L22.5188 7.99453L22 7.13965ZM14.6143 11.6221L14.0941 12.4761L21.4799 16.9742L22 16.1201L22.5201 15.266L15.1344 10.768L14.6143 11.6221ZM22 16.1201L21 16.1201L21 18.0996L22 18.0996L23 18.0996L23 16.1201L22 16.1201ZM22 18.0996L22.519 17.2449L13.3638 11.6853L12.8447 12.54L12.3257 13.3948L21.481 18.9544L22 18.0996ZM12.8447 12.54L12.8447 11.54L12.542 11.54L12.542 12.54L12.542 13.54L12.8447 13.54L12.8447 12.54ZM12.542 12.54L11.542 12.54L11.542 12.875L12.542 12.875L13.542 12.875L13.542 12.54L12.542 12.54ZM12.542 12.875L11.688 13.3953L17.2476 22.5203L18.1016 22L18.9555 21.4797L13.396 12.3547L12.542 12.875ZM18.1016 22L18.1016 21L15.9619 21L15.9619 22L15.9619 23L18.1016 23L18.1016 22ZM15.9619 22L16.8168 21.4811L12.3343 14.0964L11.4795 14.6152L10.6246 15.1341L15.1071 22.5189L15.9619 22ZM11.4795 14.6152L10.6254 14.095L6.1274 21.4798L6.98145 22L7.83549 22.5202L12.3335 15.1354L11.4795 14.6152ZM6.98145 22L6.98145 21L5.00195 21L5.00195 22L5.00195 23L6.98145 23L6.98145 22ZM5.00195 22L5.85667 22.5191L11.4162 13.3648L10.5615 12.8457L9.7068 12.3266L4.14723 21.4809L5.00195 22ZM10.5615 12.8457L11.5615 12.8457L11.5615 12.5381L10.5615 12.5381L9.56152 12.5381L9.56152 12.8457L10.5615 12.8457ZM10.5615 12.5381L10.5615 11.5381L10.124 11.5381L10.124 12.5381L10.124 13.5381L10.5615 13.5381L10.5615 12.5381ZM10.124 12.5381L9.60368 11.6841L0.479656 17.2437L1 18.0977L1.52034 18.9516L10.6444 13.392L10.124 12.5381ZM1 18.0977L2 18.0977L2 15.958L1 15.958L-2.64104e-07 15.958L-1.70577e-07 18.0977L1 18.0977ZM1 15.958L1.51879 16.8129L8.90356 12.3315L8.38477 11.4766L7.86597 10.6217L0.481205 15.1031L1 15.958ZM12 12L13 12L13 11L12 11L11 11L11 12L12 12ZM12 11L12 10L11 10L11 11L11 12L12 12L12 11ZM11 11L10 11L10 12L11 12L12 12L12 11L11 11ZM11 12L11 13L12 13L12 12L12 11L11 11L11 12Z" fill="white" mask="url(#path-1-outside-1_3869_27997)"/>
</svg>
