<svg xmlns="http://www.w3.org/2000/svg" viewBox="0 0 24 24" role="img" aria-label="Coffee" fill="none">
  <path stroke="#211e19" stroke-width="1.6" stroke-linejoin="round" d="M4.5 9h11.5v6.5A3.5 3.5 0 0 1 12.5 19h-4A3.5 3.5 0 0 1 5 15.5V9Z"/>
  <path stroke="#211e19" stroke-width="1.6" stroke-linecap="round" d="M16 10.5h1.75A2.75 2.75 0 0 1 20.5 13.25v0A2.75 2.75 0 0 1 17.75 16H16"/>
  <path stroke="#9c4a21" stroke-width="1.5" stroke-linecap="round" d="M8 5.5c.4 1 .4 1.8 0 2.8M11.5 5c.45 1.1.45 2 0 3.1M14.5 5.5c.4 1 .4 1.8 0 2.8"/>
  <path stroke="#211e19" stroke-width="1.6" stroke-linecap="round" d="M3.5 21h13"/>
</svg>
