<svg xmlns="http://www.w3.org/2000/svg" viewBox="0 0 24 24" role="img" aria-label="Figma">
  <path fill="#0ACF83" d="M8 24c2.21 0 4-1.79 4-4v-4H8c-2.21 0-4 1.79-4 4s1.79 4 4 4"/>
  <path fill="#A259FF" d="M4 12c0-2.21 1.79-4 4-4h4v8H8c-2.21 0-4-1.79-4-4"/>
  <path fill="#F24E1E" d="M4 4C4 1.79 5.79 0 8 0h4v8H8C5.79 8 4 6.21 4 4"/>
  <path fill="#FF7262" d="M12 0h4c2.21 0 4 1.79 4 4s-1.79 4-4 4h-4V0z"/>
  <path fill="#1ABCFE" d="M20 12c0 2.21-1.79 4-4 4s-4-1.79-4-4 1.79-4 4-4 4 1.79 4 4"/>
</svg>
