<svg xmlns="http://www.w3.org/2000/svg" viewBox="0 0 128 128" role="img" aria-label="SwiftUI">
  <defs>
    <linearGradient id="swiftui-bg" x1="20" y1="108" x2="108" y2="20" gradientUnits="userSpaceOnUse">
      <stop offset="0" stop-color="#0A84FF"/>
      <stop offset="1" stop-color="#6FD3FF"/>
    </linearGradient>
    <linearGradient id="swiftui-mark" x1="42" y1="88" x2="90" y2="42" gradientUnits="userSpaceOnUse">
      <stop offset="0" stop-color="#FFFFFF"/>
      <stop offset="1" stop-color="#EAF6FF"/>
    </linearGradient>
  </defs>
  <rect width="128" height="128" rx="28" fill="url(#swiftui-bg)"/>
  <path fill="rgba(0, 79, 156, 0.18)" d="M39 82.5 66.2 55a6.5 6.5 0 0 1 8.7-.5l16.1 13a6.5 6.5 0 0 1 .6 9.5L64.8 101a5.7 5.7 0 0 1-8-.2L39 82.5Z"/>
  <path fill="url(#swiftui-mark)" d="m43.5 79.8 16.8-16.7c2.1-2.1 5.4-2.4 7.9-.8l8.7 5.8-23 22.9c-2.5-2.7-6.7-7-10.4-11.2Zm24-24 8.7-8.8a5.5 5.5 0 0 1 7.4-.4l10.9 8.1-8.7 8.7-18.3-7.6Zm-8.1 38.8 25-24.9 10.8 8.4c1.7 1.3 1.8 3.9.3 5.4L76.3 102a5.3 5.3 0 0 1-7.5-.1l-9.4-9.3Z"/>
</svg>
