<svg xmlns="http://www.w3.org/2000/svg" viewBox="0 0 400 400" role="img" aria-label="Bookshelf">
  <defs>
    <linearGradient id="bg" x1="0%" y1="0%" x2="100%" y2="100%">
      <stop offset="0%" stop-color="#1a1410"/>
      <stop offset="100%" stop-color="#0d0a08"/>
    </linearGradient>
    <linearGradient id="shelf" x1="0%" y1="0%" x2="0%" y2="100%">
      <stop offset="0%" stop-color="#5c4033"/>
      <stop offset="100%" stop-color="#3d2a22"/>
    </linearGradient>
  </defs>
  <rect width="400" height="400" fill="url(#bg)"/>
  <rect x="40" y="130" width="320" height="14" rx="2" fill="url(#shelf)"/>
  <rect x="40" y="230" width="320" height="14" rx="2" fill="url(#shelf)"/>
  <rect x="40" y="330" width="320" height="14" rx="2" fill="url(#shelf)"/>
  <rect x="55" y="78" width="22" height="52" rx="2" fill="#8b5cf6"/>
  <rect x="82" y="72" width="18" height="58" rx="2" fill="#c084fc"/>
  <rect x="105" y="80" width="24" height="50" rx="2" fill="#6366f1"/>
  <rect x="134" y="74" width="20" height="56" rx="2" fill="#a78bfa"/>
  <rect x="159" y="82" width="26" height="48" rx="2" fill="#7c3aed"/>
  <rect x="190" y="76" width="22" height="54" rx="2" fill="#ddd6fe"/>
  <rect x="217" y="84" width="18" height="46" rx="2" fill="#8b5cf6"/>
  <rect x="60" y="178" width="28" height="52" rx="2" fill="#f59e0b"/>
  <rect x="92" y="172" width="22" height="58" rx="2" fill="#fbbf24"/>
  <rect x="119" y="180" width="26" height="50" rx="2" fill="#d97706"/>
  <rect x="150" y="174" width="20" height="56" rx="2" fill="#fcd34d"/>
  <rect x="175" y="182" width="24" height="48" rx="2" fill="#f59e0b"/>
  <rect x="204" y="176" width="22" height="54" rx="2" fill="#fde68a"/>
  <rect x="70" y="278" width="24" height="52" rx="2" fill="#34d399"/>
  <rect x="99" y="272" width="20" height="58" rx="2" fill="#10b981"/>
  <rect x="124" y="280" width="26" height="50" rx="2" fill="#6ee7b7"/>
  <rect x="155" y="274" width="22" height="56" rx="2" fill="#059669"/>
  <rect x="182" y="282" width="18" height="48" rx="2" fill="#a7f3d0"/>
  <text x="200" y="385" text-anchor="middle" fill="#a8a29e" font-family="system-ui,sans-serif" font-size="18" font-weight="600" letter-spacing="0.08em">BOOKSHELF</text>
</svg>
