<svg xmlns="http://www.w3.org/2000/svg" viewBox="0 0 400 400" role="img" aria-label="Periodic Table SwiftUI">
  <rect width="400" height="400" fill="#0c0a12"/>
  <g transform="translate(52 70)">
    <rect x="0" y="0" width="44" height="44" rx="8" fill="#ef4444"/>
    <rect x="52" y="0" width="44" height="44" rx="8" fill="#f97316"/>
    <rect x="104" y="0" width="44" height="44" rx="8" fill="#eab308"/>
    <rect x="156" y="0" width="44" height="44" rx="8" fill="#22c55e"/>
    <rect x="208" y="0" width="44" height="44" rx="8" fill="#06b6d4"/>
    <rect x="260" y="0" width="44" height="44" rx="8" fill="#3b82f6"/>
    <rect x="26" y="56" width="44" height="44" rx="8" fill="#9c4a21"/>
    <rect x="78" y="56" width="44" height="44" rx="8" fill="#ec4899"/>
    <rect x="130" y="56" width="44" height="44" rx="8" fill="#14b8a6"/>
    <rect x="182" y="56" width="44" height="44" rx="8" fill="#6366f1"/>
    <rect x="234" y="56" width="44" height="44" rx="8" fill="#f43f5e"/>
    <rect x="0" y="112" width="44" height="44" rx="8" fill="#a855f7"/>
    <rect x="52" y="112" width="44" height="44" rx="8" fill="#0ea5e9"/>
    <rect x="104" y="112" width="44" height="44" rx="8" fill="#84cc16"/>
    <rect x="156" y="112" width="44" height="44" rx="8" fill="#f59e0b"/>
    <rect x="208" y="112" width="44" height="44" rx="8" fill="#10b981"/>
    <rect x="260" y="112" width="44" height="44" rx="8" fill="#6366f1"/>
    <rect x="78" y="168" width="44" height="44" rx="8" fill="#cbd5e1" opacity="0.9"/>
    <rect x="130" y="168" width="44" height="44" rx="8" fill="#94a3b8" opacity="0.85"/>
    <rect x="182" y="168" width="44" height="44" rx="8" fill="#64748b" opacity="0.8"/>
  </g>
  <text x="200" y="320" text-anchor="middle" fill="#e2e8f0" font-family="system-ui,sans-serif" font-size="22" font-weight="700">Pt</text>
  <text x="200" y="385" text-anchor="middle" fill="#94a3b8" font-family="system-ui,sans-serif" font-size="13" font-weight="600" letter-spacing="0.05em">PERIODIC TABLE</text>
</svg>
